<svg height="512pt" viewBox="0 -5 512.00242 512" width="512pt" xmlns="http://www.w3.org/2000/svg"><g fill-rule="evenodd"><path d="m368.890625 221.375c-18.332031-4.5-35.730469-13.933594-50.070313-28.265625-14.367187-14.332031-23.777343-31.722656-28.308593-50.074219l-226.019531 237.859375c-10.992188 11.582031-11.277344 29.765625 0 41.066407l12.667968 12.664062 12.695313 12.660156c11.277343 11.300782 29.5 10.988282 41.0625 0zm0 0" fill="#60a4ff"/><path d="m78.578125 53.984375v26.765625c0 6.148438 4.675781 9.914062 10.398437 8.382812l111.449219-29.652343c5.726563-1.53125 10.429688-7.789063 10.429688-13.90625v-26.765625c0-6.148438-4.703125-9.914063-10.429688-8.386719l-111.449219 29.628906c-5.722656 1.527344-10.398437 7.789063-10.398437 13.933594zm0 0" fill="#60a4ff"/><path d="m177.21875 108.421875c-18.589844 0-33.636719 12.800781-33.636719 28.609375 0 15.804688 15.046875 28.632812 33.636719 28.632812 18.5625 0 33.636719-12.828124 33.636719-28.632812 0-15.808594-15.074219-28.609375-33.636719-28.609375zm0 0" fill="#60a4ff"/><path d="m78.578125 187.105469c0-15.804688-15.074219-28.636719-33.636719-28.636719-18.589844 0-33.636718 12.832031-33.636718 28.636719 0 15.804687 15.046874 28.632812 33.636718 28.632812 18.558594 0 33.636719-12.828125 33.636719-28.632812zm0 0" fill="#60a4ff"/><path d="m304.199219 59.648438c-26.527344 41.464843-21.652344 97.207031 14.621093 133.460937 36.242188 36.226563 92.011719 41.097656 133.496094 14.585937-1.898437-1.046874-3.714844-2.378906-5.328125-4.019531l-138.765625-138.703125c-1.617187-1.613281-2.976562-3.398437-4.023437-5.324218zm0 0" fill="#e8e7e9"/><path d="m308.222656 64.972656 138.765625 138.703125c1.613281 1.640625 3.429688 2.972657 5.328125 4.019531 9.179688 5.097657 21.023438 3.742188 28.789063-4.019531 7.738281-7.734375 9.097656-19.570312 4.023437-28.75-1.074218-1.898437-2.40625-3.710937-4.023437-5.324219l-138.792969-138.699218c-1.617188-1.644532-3.402344-2.976563-5.328125-4.023438-9.179687-5.070312-21-3.738281-28.761719 4.023438-7.765625 7.730468-9.097656 19.570312-4.023437 28.746094 1.046875 1.925781 2.40625 3.710937 4.023437 5.324218zm0 0" fill="#b3b0b5"/><path d="m342.3125 30.902344 138.792969 138.699218c1.617187 1.613282 2.949219 3.425782 4.023437 5.324219 26.496094-41.464843 21.652344-97.207031-14.621094-133.460937-36.273437-36.222656-92.011718-41.09375-133.523437-14.585938 1.925781 1.046875 3.710937 2.378906 5.328125 4.023438zm0 0" fill="#e8e7e9"/><path d="m373.539062 397.152344c-25.902343 0-46.898437 17.871094-46.898437 39.90625s20.996094 39.90625 46.898437 39.90625c25.898438 0 46.871094-17.871094 46.871094-39.90625s-20.972656-39.90625-46.871094-39.90625zm0 0" fill="#ff6977"/></g><path d="m287.832031 219.1875c-3.9375-3.9375-10.320312-3.941406-14.261719-.003906l-49.390624 49.367187c-3.9375 3.9375-3.941407 10.324219-.003907 14.265625 1.96875 1.96875 4.550781 2.953125 7.132813 2.953125 2.578125 0 5.160156-.984375 7.128906-2.953125l49.390625-49.367187c3.941406-3.9375 3.941406-10.324219.003906-14.261719zm0 0"/><path d="m473.394531 298.691406c-16.042969-11.1875-35.847656-17.867187-52.984375-17.867187-5.570312 0-10.085937 4.515625-10.085937 10.085937v108.027344c-9.933594-7.394531-22.773438-11.871094-36.785157-11.871094-31.421874 0-56.984374 22.425782-56.984374 49.992188s25.5625 49.992187 56.984374 49.992187c31.402344 0 56.953126-22.425781 56.953126-49.992187v-135.101563c24.5 4.476563 51.695312 23.855469 51.695312 43.617188v38.601562c0 5.570313 4.515625 10.085938 10.082031 10.085938 5.570313 0 10.085938-4.515625 10.085938-10.085938v-38.601562c0-17.207031-10.285157-33.859375-28.960938-46.882813zm-99.855469 168.191406c-20.296874 0-36.8125-13.378906-36.8125-29.824218 0-16.445313 16.515626-29.824219 36.8125-29.824219 20.285157 0 36.785157 13.378906 36.785157 29.824219 0 16.445312-16.5 29.824218-36.785157 29.824218zm0 0"/><path d="m44.941406 225.824219c24.109375 0 43.722656-17.367188 43.722656-38.71875 0-.59375-.023437-1.183594-.054687-1.773438.035156-.328125.054687-.664062.054687-1.003906v-84.902344c.964844-.109375 1.9375-.285156 2.90625-.546875l109.199219-29.054687v34.632812c-6.800781-3.867187-14.882812-6.121093-23.550781-6.121093-24.109375 0-43.71875 17.359374-43.71875 38.691406 0 21.351562 19.609375 38.722656 43.71875 38.722656s43.71875-17.371094 43.71875-38.722656v-118.21875c0-6.15625-2.597656-11.6875-7.132812-15.171875-4.441407-3.40625-10.265626-4.480469-15.96875-2.960938l-111.449219 29.625c-.003907.003907-.007813.003907-.011719.003907-10.195312 2.726562-17.882812 12.90625-17.882812 23.679687v100.523437c-6.804688-3.867187-14.882813-6.125-23.550782-6.125-24.109375 0-43.722656 17.371094-43.722656 38.722657 0 21.351562 19.613281 38.71875 43.722656 38.71875zm132.277344-70.246094c-12.984375 0-23.550781-8.320313-23.550781-18.546875 0-10.214844 10.566406-18.523438 23.550781-18.523438 12.988281 0 23.550781 8.308594 23.550781 18.523438 0 10.226562-10.5625 18.546875-23.550781 18.546875zm-88.558594-101.59375c0-1.6875 1.691406-3.859375 2.914063-4.191406l109.195312-29.023438v24.804688c0 1.628906-1.730469 3.839843-2.9375 4.160156l-109.171875 29.046875zm-43.71875 114.570313c12.765625 0 23.550782 8.496093 23.550782 18.550781 0 10.054687-10.785157 18.550781-23.550782 18.550781s-23.550781-8.496094-23.550781-18.550781c0-10.054688 10.785156-18.550781 23.550781-18.550781zm0 0"/><path d="m382.570312 233.960938c3.988282.410156 7.984376.613281 11.972657.613281 20.511719 0 40.792969-5.382813 58.535156-15.570313 3.554687 1.195313 7.261719 1.800782 10.972656 1.800782 8.757813 0 17.511719-3.328126 24.175781-9.988282 6.441407-6.417968 9.992188-14.992187 10-24.140625.003907-3.796875-.613281-7.492187-1.785156-10.980469 12.167969-21.191406 17.46875-46.003906 14.949219-70.488281-2.75-26.695312-14.734375-51.867187-33.753906-70.875-19.023438-19-44.199219-30.972656-70.894531-33.714843-24.488282-2.519532-49.324219 2.785156-70.53125 14.953124-11.925782-4.007812-25.636719-1.277343-35.117188 8.199219-6.445312 6.4375-9.992188 15.023438-9.992188 24.171875 0 3.777344.617188 7.460938 1.78125 10.9375-12.171874 21.1875-17.476562 46-14.953124 70.488282.367187 3.558593.910156 7.089843 1.597656 10.585937l-222.347656 234c-14.992188 15.792969-14.917969 40.011719.1875 55.144531l8.800781 8.789063c-10.433594 41.769531-54.425781 43.882812-56.410157 43.957031-5.550781.179688-9.914062 4.816406-9.75390575 10.371094.16015575 5.46875 4.64062475 9.792968 10.07421875 9.792968.101563 0 .199219 0 .300781-.003906.671875-.019531 16.675782-.574218 33.957032-8.753906 13.15625-6.230469 29.109374-17.910156 37.824218-39.394531l.554688.554687c7.585937 7.601563 17.472656 11.40625 27.4375 11.40625 9.882812 0 19.839844-3.738281 27.714844-11.226562l85.976562-81.855469c4.03125-3.839844 4.191406-10.222656.347656-14.257813-3.839844-4.035156-10.222656-4.191406-14.257812-.351562l-85.96875 81.851562c-7.816406 7.429688-19.664063 7.507813-26.988282.171876l-25.347656-25.308594c-7.316406-7.332032-7.238281-19.191406.171875-26.996094l214.460938-225.695312c5.867187 14.144531 14.472656 27.144531 25.429687 38.09375 10.9375 10.933593 23.929688 19.527343 38.070313 25.386718l-61.6875 58.5625c-.058594.054688-.113281.109375-.171875.164063l-12.097656 12.039062c-3.949219 3.925781-3.964844 10.3125-.039063 14.261719 1.972656 1.980469 4.5625 2.972656 7.152344 2.972656 2.570312 0 5.144531-.976562 7.113281-2.9375l12.011719-11.953125 69.925781-66.378906c3.5.691406 7.035156 1.234375 10.601562 1.601563zm80.808594-185.363282c28.71875 28.703125 36.136719 72.589844 19.785156 108.800782l-128.644531-128.554688c36.226563-16.34375 80.132813-8.933594 108.859375 19.753906zm-148.027344-10.5625c2.734376-2.734375 6.324219-4.097656 9.914063-4.097656 3.59375 0 7.183594 1.363281 9.917969 4.097656l138.796875 138.699219c2.632812 2.632813 4.082031 6.15625 4.078125 9.925781-.003906 3.753906-1.449219 7.257813-4.082032 9.878906-5.472656 5.472657-14.382812 5.472657-19.859374 0l-138.765626-138.695312c-2.632812-2.632812-4.082031-6.148438-4.082031-9.90625s1.449219-7.273438 4.082031-9.902344zm-9.191406 39.136719 128.621094 128.5625c-36.21875 16.355469-80.113281 8.945313-108.832031-19.757813-28.734375-28.71875-36.152344-72.601562-19.789063-108.804687zm0 0"/><path d="m256.359375 326.582031c-4.277344-3.5625-10.636719-2.988281-14.203125 1.292969l-.140625.167969c-3.566406 4.28125-2.988281 10.640625 1.289063 14.203125 1.886718 1.574218 4.175781 2.339844 6.453124 2.339844 2.886719 0 5.757813-1.238282 7.75-3.628907l.144532-.171875c3.5625-4.277344 2.984375-10.636718-1.292969-14.203125zm0 0"/></svg>